<svg width="552" height="402" viewBox="0 0 552 402" fill="none" xmlns="http://www.w3.org/2000/svg">
<g opacity="0.8">
<path d="M4.29956 140.733C4.29956 140.733 44.6156 101.442 99.2964 101.442C153.977 101.442 189.123 140.733 189.123 140.733V350.979H4.29956V140.733Z" fill="#D5E5F0"/>
<path d="M184.526 142.247C161.078 119.517 129.704 106.805 97.0474 106.805C64.3907 106.805 33.0163 119.517 9.56909 142.247V346.992H184.526V142.247ZM179.013 341.524H15.0372V144.552C37.2977 123.787 66.6059 112.24 97.0474 112.24C127.489 112.24 156.797 123.787 179.058 144.552L179.013 341.524Z" fill="#BBD6E8"/>
<path d="M194.095 356.561H0V138.278L1.40008 136.878C26.7692 111.514 61.1739 97.2656 97.0474 97.2656C132.921 97.2656 167.326 111.514 192.695 136.878L194.095 138.278V356.561ZM9.56913 346.991H184.526V142.247C161.078 119.516 129.704 106.805 97.0474 106.805C64.3907 106.805 33.0163 119.516 9.56913 142.247V346.991Z" fill="#A8CBE2"/>
<path d="M132.579 344.518V249.896H182.508V240.338H132.579V146.179H182.508V143.115C180.127 140.832 177.646 138.705 175.111 136.621H132.579V114.032C129.437 113.095 126.24 112.301 123.01 111.618V136.621H71.074V111.618C67.8439 112.301 64.6578 113.095 61.5048 114.032V136.621H19.006C16.4814 138.683 14.0009 140.832 11.6196 143.115V146.179H61.5048V240.338H11.6307V249.896H61.5159V344.518H71.085V249.896H122.977V344.518H132.579ZM122.977 240.338H71.074V146.179H122.977V240.338Z" fill="#C5DCEB"/>
</g>
<path d="M402.5 245H357.78C357.051 245 356.46 245.591 356.46 246.32V256.39C356.46 257.119 357.051 257.71 357.78 257.71H402.5C403.229 257.71 403.82 257.119 403.82 256.39V246.32C403.82 245.591 403.229 245 402.5 245Z" fill="#D5E5F0"/>
<path d="M402.5 276.531H357.78C357.051 276.531 356.46 277.122 356.46 277.851V287.921C356.46 288.65 357.051 289.241 357.78 289.241H402.5C403.229 289.241 403.82 288.65 403.82 287.921V277.851C403.82 277.122 403.229 276.531 402.5 276.531Z" fill="#D5E5F0"/>
<path d="M388.04 260.75H343.32C342.591 260.75 342 261.341 342 262.07V272.14C342 272.869 342.591 273.46 343.32 273.46H388.04C388.769 273.46 389.36 272.869 389.36 272.14V262.07C389.36 261.341 388.769 260.75 388.04 260.75Z" fill="#D5E5F0"/>
<path d="M437.61 260.75H392.89C392.161 260.75 391.57 261.341 391.57 262.07V272.14C391.57 272.869 392.161 273.46 392.89 273.46H437.61C438.339 273.46 438.93 272.869 438.93 272.14V262.07C438.93 261.341 438.339 260.75 437.61 260.75Z" fill="#C9DDEA"/>
<g opacity="0.7">
<path d="M498.243 19.2539L487.864 19.3101L488.144 70.9317L498.522 70.8755L498.243 19.2539Z" fill="#D5E5F0"/>
<path d="M424.842 19.3952L397.974 19.5405L398.128 48.045L424.996 47.8996L424.842 19.3952Z" fill="#C2D9E8"/>
<path d="M451.6 19.2467L424.732 19.3921L424.886 47.8965L451.754 47.7511L451.6 19.2467Z" fill="#D5E5F0"/>
<g style="mix-blend-mode:multiply">
<path d="M398.024 27.4291C415.882 27.5837 433.748 27.5018 451.624 27.1836C451.688 27.1695 451.745 27.1341 451.785 27.0832C451.826 27.0324 451.849 26.9692 451.849 26.904C451.849 26.8388 451.826 26.7756 451.785 26.7248C451.745 26.674 451.688 26.6385 451.624 26.6244C433.771 26.5153 415.864 26.6244 398.011 26.9517C397.957 26.9646 397.909 26.9952 397.875 27.0385C397.841 27.0818 397.823 27.1353 397.823 27.1904C397.823 27.2455 397.841 27.299 397.875 27.3423C397.909 27.3856 397.957 27.4162 398.011 27.4291H398.024Z" fill="#D5DBE0"/>
</g>
<path d="M430.04 47.421L381.228 47.6851L381.354 70.9114L430.166 70.6473L430.04 47.421Z" fill="#C2D9E8"/>
<path d="M478.632 47.1592L429.82 47.4233L429.946 70.6497L478.758 70.3856L478.632 47.1592Z" fill="#D5E5F0"/>
<g style="mix-blend-mode:multiply">
<path d="M381.262 54.1569C413.695 54.5251 446.223 54.1569 478.656 53.6795C478.732 53.6795 478.805 53.6493 478.858 53.5956C478.912 53.5419 478.942 53.4691 478.942 53.3931C478.942 53.3171 478.912 53.2443 478.858 53.1906C478.805 53.1369 478.732 53.1067 478.656 53.1067C446.223 52.943 413.681 52.9567 381.262 53.6659C381.197 53.6659 381.135 53.6917 381.088 53.7378C381.042 53.7838 381.017 53.8463 381.017 53.9114C381.017 53.9765 381.042 54.0389 381.088 54.085C381.135 54.131 381.197 54.1569 381.262 54.1569Z" fill="#D5DBE0"/>
</g>
<path d="M552 71H363V79H552V71Z" fill="#C9DDEA"/>
<path d="M401.652 74.9351H393.973V103.331H401.652V74.9351Z" fill="#D5E5F0"/>
<path d="M516.258 74.9351H508.579V103.331H516.258V74.9351Z" fill="#D5E5F0"/>
<path d="M508.368 -3.26256e-06L497.989 0.0561523L498.373 71.0581L508.752 71.0019L508.368 -3.26256e-06Z" fill="#C2D9E8"/>
<g style="mix-blend-mode:multiply">
<path d="M524.574 13.2346L508.453 13.3218L508.764 70.8625L524.885 70.7753L524.574 13.2346Z" fill="#D5E5F0"/>
</g>
<g style="mix-blend-mode:multiply">
<path d="M524.455 24.3328C519.088 24.7147 513.701 24.7147 508.334 24.3328C513.701 23.9691 519.087 23.9691 524.455 24.3328Z" fill="#D5DBE0"/>
</g>
<g style="mix-blend-mode:multiply">
<path d="M524.455 21.9149C519.088 22.2967 513.701 22.2967 508.334 21.9149C513.701 21.5512 519.087 21.5512 524.455 21.9149Z" fill="#D5DBE0"/>
</g>
<g style="mix-blend-mode:multiply">
<path d="M524.455 62.1355C519.087 62.4992 513.701 62.4992 508.334 62.1355C513.701 61.7537 519.088 61.7537 524.455 62.1355Z" fill="#D5DBE0"/>
</g>
<g style="mix-blend-mode:multiply">
<path d="M524.455 59.7117C519.088 60.0936 513.701 60.0936 508.334 59.7117C513.701 59.348 519.087 59.348 524.455 59.7117Z" fill="#D5DBE0"/>
</g>
<path d="M516.653 54.4188C516.503 54.4188 516.381 48.6087 516.381 41.4484C516.381 34.2881 516.503 28.478 516.653 28.478C516.803 28.478 516.94 34.2881 516.94 41.4484C516.94 48.6087 516.817 54.4188 516.653 54.4188Z" fill="#D5DBE0"/>
<path d="M542.185 27.3843H524.632V70.8098H542.185V27.3843Z" fill="#D5E5F0"/>
<g style="mix-blend-mode:multiply">
<path d="M506.002 12.1427C506.004 12.734 505.831 13.3128 505.505 13.8058C505.178 14.2988 504.713 14.6837 504.167 14.9119C503.622 15.14 503.021 15.2011 502.44 15.0874C501.86 14.9737 501.327 14.6903 500.908 14.2732C500.488 13.856 500.203 13.3238 500.086 12.7441C499.97 12.1643 500.028 11.563 500.254 11.0164C500.48 10.4699 500.862 10.0026 501.354 9.67378C501.845 9.34497 502.423 9.16944 503.015 9.16943C503.804 9.16943 504.562 9.48224 505.122 10.0394C505.682 10.5966 505.998 11.3529 506.002 12.1427Z" fill="#D5DBE0"/>
</g>
<g style="mix-blend-mode:multiply">
<path d="M503.942 20.3647H502.101V62.6037H503.942V20.3647Z" fill="#D5DBE0"/>
</g>
</g>
<ellipse cx="172.053" cy="90.655" rx="52.5929" ry="52.6556" fill="#E2DFFD"/>
<path d="M138.654 107.941C142.635 107.941 145.862 104.71 145.862 100.725C145.862 96.7389 142.635 93.5078 138.654 93.5078C134.673 93.5078 131.446 96.7389 131.446 100.725C131.446 104.71 134.673 107.941 138.654 107.941Z" fill="#F6B545"/>
<path d="M138.654 107.036C142.138 107.036 144.962 104.209 144.962 100.721C144.962 97.2335 142.138 94.4062 138.654 94.4062C135.171 94.4062 132.347 97.2335 132.347 100.721C132.347 104.209 135.171 107.036 138.654 107.036Z" fill="#FFCB5B"/>
<path d="M144.962 100.727C144.962 104.245 142.168 107.042 138.654 107.042V107.944C142.619 107.944 145.863 104.696 145.863 100.727H144.962Z" fill="#F19920"/>
<path d="M138.654 94.4099V93.5078C134.69 93.5078 131.446 96.7554 131.446 100.725H132.347C132.347 97.2064 135.14 94.4099 138.654 94.4099Z" fill="#FFE27A"/>
<path d="M184.967 68.6462C187.214 68.6462 189.036 66.8225 189.036 64.5729C189.036 62.3233 187.214 60.4996 184.967 60.4996C182.72 60.4996 180.899 62.3233 180.899 64.5729C180.899 66.8225 182.72 68.6462 184.967 68.6462Z" fill="#F6B545"/>
<path d="M184.967 68.1397C186.933 68.1397 188.527 66.5439 188.527 64.5755C188.527 62.6071 186.933 61.0114 184.967 61.0114C183.001 61.0114 181.407 62.6071 181.407 64.5755C181.407 66.5439 183.001 68.1397 184.967 68.1397Z" fill="#FFCB5B"/>
<path d="M188.527 64.5739C188.527 66.5596 186.951 68.138 184.967 68.138V68.6471C187.205 68.6471 189.036 66.8142 189.036 64.5739H188.527Z" fill="#F19920"/>
<path d="M184.967 61.0088V60.4996C182.73 60.4996 180.899 62.3326 180.899 64.5729H181.407C181.408 62.5872 182.984 61.0088 184.967 61.0088Z" fill="#FFE27A"/>
<path d="M184.182 123.662C186.429 123.662 188.251 121.838 188.251 119.588C188.251 117.339 186.429 115.515 184.182 115.515C181.936 115.515 180.114 117.339 180.114 119.588C180.114 121.838 181.936 123.662 184.182 123.662Z" fill="#F6B545"/>
<path d="M184.182 123.151C186.148 123.151 187.742 121.556 187.742 119.587C187.742 117.619 186.148 116.023 184.182 116.023C182.216 116.023 180.622 117.619 180.622 119.587C180.622 121.556 182.216 123.151 184.182 123.151Z" fill="#FFCB5B"/>
<path d="M187.742 119.59C187.742 121.576 186.166 123.154 184.182 123.154V123.664C186.42 123.664 188.251 121.831 188.251 119.59H187.742Z" fill="#F19920"/>
<path d="M184.182 116.024V115.515C181.945 115.515 180.114 117.348 180.114 119.588H180.623C180.623 117.603 182.199 116.024 184.182 116.024Z" fill="#FFE27A"/>
<g filter="url(#filter0_d_4339_173716)">
<path d="M171.668 89.5811L194.008 66.1887C195.061 65.0858 196.91 65.5216 197.361 66.979L197.839 68.5203C198.058 69.2291 198.652 69.7581 199.38 69.8946L202.371 70.4553C203.136 70.5987 203.749 71.1736 203.941 71.9288L204.715 74.9766C204.907 75.7318 205.52 76.3068 206.285 76.4502L209.231 77.0024C209.983 77.1433 210.588 77.7018 210.791 78.4407L211.679 81.6887C211.882 82.4276 212.487 82.9861 213.239 83.1271L213.813 83.2345C215.373 83.527 215.987 85.4359 214.89 86.5846L192.972 109.535C191.856 110.703 189.889 110.134 189.568 108.55L189.473 108.082C189.313 107.289 188.692 106.671 187.899 106.515L184.658 105.879C183.865 105.723 183.244 105.105 183.083 104.313L182.499 101.427C182.336 100.621 181.697 99.9968 180.888 99.8536L177.855 99.3168C177.046 99.1736 176.407 98.5496 176.244 97.7436L175.65 94.8096C175.494 94.0414 174.905 93.4349 174.142 93.2577L172.661 92.9135C171.152 92.5629 170.598 90.7018 171.668 89.5811Z" fill="white"/>
<path d="M194.6 74.3139C194.907 73.9923 195.417 73.9809 195.738 74.2884L206.208 84.3107C206.529 84.6183 206.54 85.1283 206.233 85.4499C205.926 85.7715 205.417 85.7829 205.095 85.4754L194.626 75.4531C194.305 75.1456 194.293 74.6355 194.6 74.3139Z" fill="#EBF1F5"/>
<path d="M187.825 76.7454C188.132 76.4238 188.641 76.4124 188.962 76.7199L195.361 82.8447C195.682 83.1522 195.693 83.6622 195.386 83.9838C195.079 84.3054 194.569 84.3169 194.248 84.0094L187.85 77.8846C187.529 77.5771 187.517 77.0671 187.825 76.7454Z" fill="#EBF1F5"/>
<path d="M185.322 79.366C185.629 79.0444 186.139 79.0329 186.46 79.3404L192.858 85.4652C193.179 85.7727 193.191 86.2827 192.883 86.6044C192.576 86.926 192.067 86.9374 191.746 86.6299L185.348 80.5051C185.026 80.1976 185.015 79.6876 185.322 79.366Z" fill="#EBF1F5"/>
<path d="M182.819 81.9865C183.127 81.6649 183.636 81.6535 183.957 81.961L190.355 88.0857C190.677 88.3933 190.688 88.9033 190.381 89.2249C190.074 89.5465 189.564 89.5579 189.243 89.2504L182.845 83.1256C182.524 82.8181 182.512 82.3081 182.819 81.9865Z" fill="#EBF1F5"/>
<path d="M180.317 84.607C180.624 84.2854 181.133 84.274 181.455 84.5815L187.853 90.7063C188.174 91.0138 188.185 91.5238 187.878 91.8454C187.571 92.167 187.062 92.1785 186.74 91.8709L180.342 85.7462C180.021 85.4387 180.01 84.9287 180.317 84.607Z" fill="#EBF1F5"/>
<path d="M177.814 87.2276C178.121 86.9059 178.631 86.8945 178.952 87.202L185.35 93.3268C185.671 93.6343 185.683 94.1443 185.376 94.4659C185.068 94.7876 184.559 94.799 184.238 94.4915L177.84 88.3667C177.518 88.0592 177.507 87.5492 177.814 87.2276Z" fill="#EBF1F5"/>
<path d="M197.131 85.6542C197.438 85.3326 197.948 85.3212 198.269 85.6287L204.667 91.7535C204.988 92.061 205 92.571 204.692 92.8926C204.385 93.2142 203.876 93.2256 203.555 92.9181L197.156 86.7934C196.835 86.4858 196.824 85.9758 197.131 85.6542Z" fill="#EBF1F5"/>
<path d="M194.628 88.2747C194.935 87.9531 195.445 87.9417 195.766 88.2492L202.164 94.374C202.485 94.6815 202.497 95.1915 202.19 95.5131C201.883 95.8347 201.373 95.8462 201.052 95.5387L194.654 89.4139C194.333 89.1064 194.321 88.5964 194.628 88.2747Z" fill="#EBF1F5"/>
<path d="M192.126 90.8953C192.433 90.5737 192.942 90.5622 193.264 90.8697L199.662 96.9945C199.983 97.302 199.994 97.812 199.687 98.1336C199.38 98.4553 198.871 98.4667 198.549 98.1592L192.151 92.0344C191.83 91.7269 191.819 91.2169 192.126 90.8953Z" fill="#EBF1F5"/>
<path d="M189.623 93.5158C189.93 93.1942 190.44 93.1827 190.761 93.4903L197.159 99.615C197.48 99.9225 197.492 100.433 197.185 100.754C196.877 101.076 196.368 101.087 196.047 100.78L189.649 94.6549C189.327 94.3474 189.316 93.8374 189.623 93.5158Z" fill="#EBF1F5"/>
<path d="M187.121 96.1363C187.428 95.8147 187.937 95.8033 188.258 96.1108L194.656 102.236C194.978 102.543 194.989 103.053 194.682 103.375C194.375 103.696 193.865 103.708 193.544 103.4L187.146 97.2755C186.825 96.968 186.813 96.4579 187.121 96.1363Z" fill="#EBF1F5"/>
<path fill-rule="evenodd" clip-rule="evenodd" d="M202.322 91.3719L188.449 91.7052C187.972 91.7161 187.531 91.5301 187.21 91.2224C186.89 90.9159 186.685 90.484 186.674 90.0056L186.522 82.343C186.499 81.3837 187.254 80.5925 188.213 80.5731C189.172 80.5524 189.966 81.3121 189.989 82.2738L190.098 88.198L202.237 87.8999C203.197 87.8816 203.99 88.6414 204.014 89.6007C204.039 90.5612 203.283 91.3524 202.322 91.3719Z" fill="#22AA00"/>
</g>
<path d="M176.812 54.9994H152.004C148.36 54.9994 145.396 57.9673 145.396 61.6154V119.115C145.396 122.763 148.36 125.731 152.004 125.731H176.812C180.456 125.731 183.42 122.763 183.42 119.115V61.6154C183.42 57.9673 180.456 54.9994 176.812 54.9994Z" fill="#AAA0FA"/>
<path d="M179.759 119.112C179.759 120.742 178.439 122.063 176.812 122.063H152.004C150.376 122.063 149.057 120.742 149.057 119.112V61.613C149.057 59.9836 150.376 58.6626 152.004 58.6626H155.095C155.704 58.6626 156.198 59.1569 156.198 59.7667V60.4668C156.198 61.4062 156.966 62.1747 157.904 62.1747H170.911C171.849 62.1747 172.617 61.4062 172.617 60.4668V59.4542C172.617 59.017 172.971 58.6625 173.408 58.6625H176.812C178.439 58.6625 179.759 59.9834 179.759 61.6129V119.112Z" fill="#D5E5F0"/>
<path d="M168.698 59.731H163.132C162.543 59.731 162.066 59.2531 162.066 58.6635C162.066 58.0739 162.543 57.5961 163.132 57.5961H168.698C169.287 57.5961 169.765 58.0739 169.765 58.6635C169.765 59.2531 169.287 59.731 168.698 59.731Z" fill="white"/>
<path d="M159.187 59.5521C158.424 59.0498 158.609 57.8219 159.569 57.6179C160.223 57.483 160.845 57.9897 160.845 58.664C160.845 59.1598 160.503 59.6042 159.986 59.7116C159.918 59.7243 159.404 59.6991 159.187 59.5521Z" fill="white"/>
<g filter="url(#filter1_d_4339_173716)">
<path d="M164.582 94.3207C172.176 94.3207 178.333 88.1565 178.333 80.5526C178.333 72.9487 172.176 66.7845 164.582 66.7845C156.987 66.7845 150.83 72.9487 150.83 80.5526C150.83 88.1565 156.987 94.3207 164.582 94.3207Z" fill="#F6B545"/>
<path d="M164.375 92.3948C171.021 92.3948 176.408 87.0011 176.408 80.3476C176.408 73.6942 171.021 68.3005 164.375 68.3005C157.73 68.3005 152.342 73.6942 152.342 80.3476C152.342 87.0011 157.73 92.3948 164.375 92.3948Z" fill="#FFCB5B"/>
<path d="M176.614 80.5535C176.614 87.2654 171.286 92.6006 164.582 92.6006V94.3215C172.145 94.3215 178.333 88.1259 178.333 80.5535H176.614Z" fill="#F19920"/>
<path d="M164.582 68.5055V66.7845C157.018 66.7845 150.83 72.9802 150.83 80.5526H152.549C152.549 73.8407 157.878 68.5055 164.582 68.5055Z" fill="#FFE27A"/>
<path d="M157.111 84.5696L157.112 84.5703C157.683 84.9871 158.291 85.2679 158.935 85.409C159.574 85.549 160.293 85.5822 161.089 85.5123C161.85 85.4455 162.558 85.2478 163.211 84.9177L163.211 84.9177L163.213 84.9164C163.867 84.5743 164.387 84.1259 164.766 83.5695C165.159 82.9949 165.339 82.3534 165.307 81.6529C165.274 80.9286 165.1 80.3396 164.769 79.9057C164.44 79.4665 163.968 79.1498 163.365 78.9491C162.779 78.7392 162.009 78.5988 161.063 78.5232C160.241 78.4499 159.654 78.3178 159.286 78.1381C158.959 77.973 158.792 77.7121 158.775 77.3311C158.76 77.0088 158.891 76.7367 159.201 76.5006L159.201 76.5006L159.202 76.4999C159.525 76.2497 160.006 76.0849 160.668 76.0268C161.039 75.9943 161.468 76.044 161.959 76.1839L161.959 76.1839L161.964 76.1852C162.47 76.3152 162.852 76.4722 163.12 76.6506L163.12 76.6507L163.125 76.6544C163.296 76.759 163.486 76.8026 163.69 76.7847C163.993 76.7581 164.254 76.6246 164.465 76.3928L164.465 76.3928L164.469 76.3884C164.676 76.1479 164.78 75.8749 164.766 75.5777C164.748 75.1875 164.534 74.8753 164.173 74.6388C163.734 74.3344 163.196 74.1096 162.563 73.9603C161.935 73.8087 161.269 73.7645 160.567 73.8262C159.785 73.8947 159.077 74.092 158.444 74.4213C157.808 74.7415 157.308 75.1795 156.951 75.7363C156.589 76.2884 156.428 76.9168 156.46 77.6129C156.503 78.5599 156.854 79.3048 157.521 79.8243C158.182 80.3384 159.133 80.6161 160.348 80.6803C161.289 80.733 161.953 80.8746 162.361 81.0888L162.361 81.0888L162.364 81.0903C162.754 81.2854 162.943 81.574 162.961 81.9689C162.974 82.2625 162.825 82.545 162.43 82.8195L162.43 82.8194L162.428 82.8207C162.042 83.0945 161.565 83.261 160.987 83.3117C160.442 83.3596 159.976 83.3242 159.586 83.2118C159.19 83.0981 158.774 82.8946 158.338 82.5964L158.338 82.5964L158.335 82.5948C158.131 82.4596 157.9 82.4022 157.649 82.4242C157.335 82.4517 157.068 82.5914 156.857 82.8353C156.648 83.0667 156.544 83.3357 156.557 83.6326C156.575 84.0084 156.774 84.3203 157.111 84.5696ZM169.564 73.7772L169.564 73.7772L169.562 73.7831L164.332 86.3745C164.262 86.5304 164.227 86.6895 164.235 86.8494C164.248 87.1328 164.381 87.3598 164.616 87.5208C164.837 87.6825 165.081 87.7619 165.342 87.739C165.532 87.7223 165.704 87.6542 165.853 87.534C166.008 87.4164 166.126 87.2642 166.208 87.0825L166.208 87.0826L166.211 87.0765L171.425 74.4866C171.494 74.3307 171.529 74.1716 171.521 74.0118C171.508 73.7293 171.376 73.503 171.143 73.3421C170.93 73.1775 170.691 73.0979 170.431 73.1208C170.24 73.1376 170.064 73.2066 169.907 73.3247L169.907 73.3246L169.9 73.3298C169.756 73.4473 169.645 73.5985 169.564 73.7772Z" fill="#E78825" stroke="#E78825" stroke-width="0.4"/>
</g>
<path d="M198.294 137.693L199.338 139.707C200.193 139.186 201.08 138.596 201.935 138.006L200.795 136.062C199.972 136.617 199.117 137.173 198.294 137.693Z" fill="#B2AAFA"/>
<path d="M171.898 34C141.177 34 115.85 59.0254 115.465 89.764L117.812 89.799C118.197 60.3223 142.438 36.3483 171.898 36.3483C201.743 36.3483 226.019 60.6377 226.019 90.5C226.019 106.798 218.768 122.08 206.157 132.419L207.628 134.242C220.799 123.447 228.331 107.534 228.331 90.535C228.331 59.3409 203.004 34 171.898 34Z" fill="#B2AAFA"/>
<path d="M171.545 144.675C150.832 144.675 131.785 132.366 123.008 113.285L120.926 114.273C130.085 134.165 149.965 147.003 171.579 147.003C175.361 147.003 179.143 146.615 182.82 145.839L182.369 143.546C178.796 144.322 175.188 144.675 171.545 144.675Z" fill="#B2AAFA"/>
<ellipse cx="449.723" cy="192.656" rx="52.5929" ry="52.6556" fill="#E2DFFD"/>
<path d="M475.963 239.693L477.008 241.707C477.863 241.186 478.749 240.596 479.604 240.006L478.464 238.062C477.641 238.617 476.786 239.173 475.963 239.693Z" fill="#AAA0FA"/>
<path d="M449.567 136C418.846 136 393.52 161.025 393.135 191.764L395.482 191.799C395.867 162.322 420.107 138.348 449.567 138.348C479.413 138.348 503.688 162.638 503.688 192.5C503.688 208.798 496.437 224.08 483.826 234.419L485.298 236.242C498.469 225.447 506 209.534 506 192.535C506 161.341 480.674 136 449.567 136Z" fill="#AAA0FA"/>
<path d="M449.214 246.675C428.502 246.675 409.455 234.366 400.677 215.285L398.596 216.273C407.755 236.165 427.635 249.003 449.249 249.003C453.031 249.003 456.812 248.615 460.49 247.839L460.039 245.546C456.465 246.322 452.857 246.675 449.214 246.675Z" fill="#AAA0FA"/>
<path d="M460.23 230.698L431.266 228.67C429.062 228.516 427.4 226.605 427.554 224.401L432.019 160.473C432.173 158.269 434.085 156.608 436.288 156.762L481.541 159.93C483.745 160.085 485.407 161.996 485.253 164.2L481.927 211.814L460.23 230.698Z" fill="#AAA0FA"/>
<path d="M431.008 220.93L434.957 164.384C437.326 164.55 439.381 162.76 439.546 160.387L477.442 163.04C477.276 165.414 479.062 167.472 481.431 167.638L478.19 214.031C475.822 213.866 462.918 225.097 462.752 227.471L434.997 225.527C435.163 223.154 433.377 221.095 431.008 220.93Z" fill="white"/>
<rect opacity="0.5" width="15.9689" height="0.666155" rx="0.333077" transform="matrix(0.997558 0.0698391 -0.0696739 0.99757 439.468 214.403)" fill="#ADB7C4"/>
<path opacity="0.4" d="M453.488 206.518C453.046 206.334 452.545 206.564 452.367 207.032C451.059 210.473 450.298 211.569 449.974 211.913C449.652 211.291 449.256 210.071 448.111 209.869C447.312 209.729 446.666 210.183 446.187 210.613C446.289 209.316 446.459 207.756 445.288 207.211C444.459 206.825 443.315 207.169 441.58 208.328C441.176 208.598 441.053 209.161 441.305 209.585C441.557 210.01 442.089 210.135 442.492 209.866C443.745 209.029 444.309 208.896 444.509 208.882C444.575 209.188 444.517 209.898 444.484 210.3C444.395 211.388 444.303 212.514 445.204 212.92C445.969 213.265 446.592 212.668 447.046 212.232C447.247 212.04 447.668 211.64 447.816 211.666C447.935 211.687 448.171 212.192 448.272 212.408C448.627 213.165 448.991 213.811 449.814 213.869C450.878 213.943 452.022 212.815 453.966 207.7C454.143 207.232 453.929 206.703 453.488 206.518Z" fill="#ADB7C4"/>
<path d="M465.638 210.674L481.927 211.814L460.23 230.698L461.369 214.385C461.523 212.181 463.434 210.52 465.638 210.674Z" fill="#978EE0"/>
<g opacity="0.6">
<rect opacity="0.5" width="33.9339" height="2.66462" rx="1.33231" transform="matrix(0.997558 0.0698391 -0.0696739 0.99757 440.523 180.196)" fill="#ADB7C4"/>
<rect opacity="0.5" width="25.9494" height="2.66462" rx="1.33231" transform="matrix(0.997558 0.0698391 -0.0696739 0.99757 440.152 185.513)" fill="#ADB7C4"/>
<rect opacity="0.5" width="25.9494" height="2.66462" rx="1.33231" transform="matrix(0.997558 0.0698391 -0.0696739 0.99757 439.409 196.146)" fill="#ADB7C4"/>
<rect opacity="0.5" width="31.2724" height="2.66462" rx="1.33231" transform="matrix(0.997558 0.0698391 -0.0696739 0.99757 439.781 190.828)" fill="#ADB7C4"/>
</g>
<path opacity="0.3" d="M468.441 176.831C468.237 177.174 467.795 177.288 467.451 177.087L462.43 174.157C462.322 174.095 462.231 174.006 462.168 173.899C462.104 173.792 462.069 173.671 462.066 173.547C462.064 173.423 462.093 173.301 462.153 173.192C462.212 173.083 462.298 172.99 462.404 172.924L463.633 172.14L461.369 171.982C461.144 172.785 460.645 173.486 459.956 173.967C459.267 174.447 458.43 174.678 457.588 174.619C456.745 174.56 455.949 174.215 455.333 173.643C454.717 173.071 454.321 172.307 454.21 171.481L451.945 171.322L453.054 172.269C453.149 172.35 453.222 172.453 453.265 172.569C453.309 172.686 453.321 172.811 453.301 172.933C453.281 173.056 453.23 173.171 453.152 173.268C453.074 173.365 452.972 173.44 452.856 173.487L447.476 175.689C447.108 175.84 446.687 175.666 446.532 175.3C446.376 174.928 446.552 174.5 446.925 174.347L451.196 172.595L449.326 170.994C449.209 170.895 449.128 170.762 449.092 170.614C449.056 170.466 449.069 170.312 449.127 170.171C449.186 170.031 449.287 169.913 449.418 169.833C449.549 169.753 449.701 169.716 449.855 169.727L454.311 170.039C454.535 169.236 455.034 168.535 455.723 168.054C456.412 167.573 457.249 167.343 458.092 167.402C458.934 167.461 459.731 167.806 460.346 168.378C460.962 168.95 461.359 169.713 461.469 170.54L465.925 170.852C466.078 170.863 466.225 170.921 466.343 171.018C466.461 171.115 466.545 171.247 466.584 171.393C466.622 171.54 466.613 171.695 466.557 171.837C466.501 171.978 466.402 172.098 466.273 172.18L464.195 173.505L468.183 175.832C468.531 176.036 468.647 176.484 468.441 176.831ZM457.991 168.848C457.557 168.817 457.125 168.914 456.748 169.127C456.371 169.339 456.066 169.657 455.873 170.041C455.679 170.425 455.606 170.856 455.661 171.282C455.716 171.707 455.898 172.107 456.183 172.431C456.469 172.755 456.845 172.988 457.264 173.102C457.683 173.215 458.127 173.203 458.539 173.067C458.95 172.932 459.312 172.678 459.578 172.34C459.843 172.001 460.001 171.592 460.031 171.164C460.071 170.59 459.879 170.024 459.496 169.59C459.113 169.155 458.572 168.888 457.991 168.848Z" fill="#ADB7C4"/>
<ellipse rx="17.6142" ry="17.635" transform="matrix(0.997558 0.0698391 -0.0696739 0.99757 429.423 175.482)" fill="#1D8F00"/>
<mask id="mask0_4339_173716" style="mask-type:alpha" maskUnits="userSpaceOnUse" x="409" y="156" width="37" height="36">
<ellipse rx="17.6142" ry="17.635" transform="matrix(0.997558 0.0698391 -0.0696739 0.99757 427.473 173.975)" fill="#22AA00"/>
</mask>
<g mask="url(#mask0_4339_173716)">
<ellipse rx="17.6142" ry="17.635" transform="matrix(0.997558 0.0698391 -0.0696739 0.99757 429.423 175.486)" fill="#22AA00"/>
</g>
<path fill-rule="evenodd" clip-rule="evenodd" d="M441.906 171.573L427.347 184.293C426.734 184.826 425.958 185.061 425.204 185.009C424.453 184.956 423.717 184.615 423.185 184.001L417.714 177.648C416.643 176.42 416.773 174.566 418.003 173.499C419.235 172.429 421.095 172.56 422.169 173.791L425.699 177.918L438.031 167.129C439.265 166.062 441.125 166.193 442.196 167.421C443.27 168.649 443.14 170.503 441.906 171.573Z" fill="white"/>
<mask id="mask1_4339_173716" style="mask-type:alpha" maskUnits="userSpaceOnUse" x="416" y="166" width="27" height="20">
<path fill-rule="evenodd" clip-rule="evenodd" d="M441.906 171.569L427.347 184.289C426.734 184.822 425.957 185.058 425.204 185.005C424.453 184.952 423.717 184.611 423.184 183.997L417.713 177.644C416.643 176.417 416.772 174.562 418.003 173.495C419.234 172.425 421.095 172.556 422.168 173.787L425.699 177.914L438.031 167.125C439.265 166.059 441.125 166.189 442.196 167.417C443.269 168.645 443.14 170.499 441.906 171.569Z" fill="white"/>
</mask>
<g mask="url(#mask1_4339_173716)">
<path fill-rule="evenodd" clip-rule="evenodd" d="M444.682 175.038L426.917 190.548C426.305 191.082 425.528 191.317 424.775 191.264C424.024 191.212 423.288 190.87 422.755 190.257L414.251 180.41C413.18 179.182 413.309 177.327 414.54 176.261C415.772 175.191 417.632 175.321 418.705 176.552L423.955 182.647C424.68 183.489 425.951 183.579 426.787 182.848L440.807 170.594C442.041 169.528 443.901 169.658 444.972 170.886C446.045 172.114 445.916 173.969 444.682 175.038Z" fill="#E0F1F3"/>
</g>
<ellipse cx="102.137" cy="215.656" rx="52.5929" ry="52.6556" fill="#E2DFFD"/>
<path d="M120.095 251.053L89.7128 257.417C87.5506 257.87 85.4315 256.484 84.9797 254.321L70.9784 187.312C70.5266 185.15 71.9131 183.03 74.0754 182.577L121.649 172.613C123.811 172.16 125.93 173.546 126.382 175.708L136.786 225.502L120.095 251.053Z" fill="white"/>
<path d="M119.595 229.102L136.786 225.502L120.095 251.053L116.498 233.838C116.046 231.675 117.433 229.555 119.595 229.102Z" fill="#F0F0F0"/>
<rect opacity="0.5" width="35.9402" height="3.59794" rx="1.79897" transform="matrix(0.978763 -0.204996 0.204529 0.978861 85.8245 201.258)" fill="#D9D7D8"/>
<rect opacity="0.5" width="27.8536" height="3.59794" rx="1.79897" transform="matrix(0.978763 -0.204996 0.204529 0.978861 87.2961 208.305)" fill="#D9D7D8"/>
<rect opacity="0.5" width="33.2447" height="3.59794" rx="1.79897" transform="matrix(0.978763 -0.204996 0.204529 0.978861 88.7678 215.348)" fill="#D9D7D8"/>
<path d="M93.7134 181.711L100.544 186.184L72.1856 229.598L65.3547 225.125L93.7134 181.711Z" fill="#AAA0FA"/>
<path d="M91.2454 185.492L93.7126 181.715L100.543 186.188L98.0763 189.965L91.2454 185.492Z" fill="#F0F5F9"/>
<path d="M99.0374 177.344L102.402 179.547L98.8103 185.046L95.4455 182.842L99.0374 177.344Z" fill="#D9E2E9"/>
<path d="M97.564 184.238L101.155 178.74L102.403 179.557L98.8118 185.055L97.564 184.238Z" fill="#C8CBD2"/>
<path d="M80.8655 197.124C80.7882 197.14 80.7078 197.133 80.6346 197.103C80.5613 197.074 80.4984 197.023 80.4539 196.958C80.4094 196.893 80.3852 196.816 80.3844 196.737C80.3837 196.657 80.4063 196.58 80.4495 196.514L90.2178 181.56C90.3749 181.319 90.5778 181.112 90.815 180.95C91.0521 180.788 91.3189 180.674 91.5999 180.615C91.881 180.556 92.1709 180.553 92.4531 180.607C92.7353 180.66 93.0042 180.768 93.2445 180.926L95.4627 182.378C95.5493 182.437 95.6094 182.528 95.6299 182.63C95.6505 182.733 95.6299 182.84 95.5726 182.928C95.5152 183.016 95.4258 183.077 95.3235 183.1C95.2212 183.122 95.1142 183.103 95.0256 183.047L92.8076 181.592C92.4971 181.399 92.1242 181.333 91.7664 181.408C91.4086 181.483 91.0934 181.693 90.8863 181.994L81.1181 196.948C81.0896 196.993 81.0527 197.031 81.0093 197.062C80.966 197.092 80.9171 197.113 80.8655 197.124Z" fill="#745EF6"/>
<path d="M72.1854 229.602L62.876 236.387L65.3535 225.128L72.1854 229.602Z" fill="#E1E6E9"/>
<path d="M100.551 186.187L98.0802 189.965L72.185 229.607L70.3227 228.388L96.2178 188.745L98.6885 184.968L100.551 186.187Z" fill="#745EF6"/>
<path d="M96.2373 188.727L98.7098 184.947L100.572 186.169L98.0998 189.948L96.2373 188.727Z" fill="#C1CDD3"/>
<path d="M72.1852 229.608L62.8768 236.394L63.5531 233.324L70.3229 228.389L72.1852 229.608Z" fill="#C8CBD2"/>
<path d="M98.1622 190.353C98.0585 190.375 97.9505 190.354 97.8618 190.296L91.0291 185.823C90.9405 185.765 90.8785 185.674 90.8569 185.57C90.8352 185.466 90.8556 185.358 90.9135 185.27L93.3812 181.492C93.4392 181.403 93.53 181.341 93.6336 181.319C93.7373 181.298 93.8453 181.318 93.9339 181.376L100.767 185.849C100.855 185.907 100.917 185.998 100.939 186.101C100.961 186.205 100.94 186.313 100.882 186.402L98.4147 190.181C98.3566 190.27 98.2658 190.331 98.1622 190.353ZM91.8012 185.372L97.9648 189.408L99.9954 186.3L93.8318 182.264L91.8012 185.372Z" fill="#745EF6"/>
<path d="M64.2365 230.21L62.8764 236.391L67.9876 232.666L64.2365 230.21Z" fill="#AAA0FA"/>
<path d="M67.9896 232.668L62.8766 236.394L63.3895 234.064L66.5763 231.742L67.9896 232.668Z" fill="#745EF6"/>
<g opacity="0.5">
<path opacity="0.5" d="M80.8883 204.849C80.811 204.865 80.7307 204.858 80.6574 204.829C80.5842 204.799 80.5213 204.748 80.4768 204.683C80.4323 204.618 80.4081 204.541 80.4073 204.462C80.4065 204.383 80.4292 204.305 80.4724 204.239L88.4977 191.953C88.5566 191.866 88.6471 191.806 88.7497 191.785C88.8524 191.765 88.9591 191.785 89.0467 191.843C89.1343 191.9 89.1959 191.989 89.2183 192.092C89.2406 192.194 89.2219 192.301 89.1661 192.39L81.1404 204.677C81.0825 204.765 80.9918 204.827 80.8883 204.849Z" fill="#F0F5F9"/>
</g>
<g opacity="0.5">
<path opacity="0.5" d="M89.88 191.086C89.8027 191.102 89.7223 191.095 89.6491 191.065C89.5758 191.036 89.513 190.985 89.4685 190.92C89.4239 190.855 89.3998 190.778 89.399 190.699C89.3982 190.619 89.4208 190.542 89.464 190.476L89.9652 189.711C90.0241 189.624 90.1146 189.564 90.2172 189.544C90.3199 189.523 90.4266 189.544 90.5142 189.601C90.6018 189.658 90.6634 189.748 90.6858 189.85C90.7081 189.953 90.6894 190.06 90.6336 190.149L90.134 190.913C90.1051 190.957 90.0678 190.995 90.0242 191.025C89.9806 191.055 89.9316 191.075 89.88 191.086Z" fill="#F0F5F9"/>
</g>
<path d="M128.497 262.727L129.538 264.733C130.389 264.214 131.272 263.626 132.124 263.038L130.988 261.102C130.169 261.655 129.317 262.209 128.497 262.727Z" fill="#B2AAFA"/>
<path d="M102.207 159.449C71.6089 159.449 46.3838 184.375 46 214.99L48.3376 215.025C48.7214 185.666 72.8649 161.788 102.207 161.788C131.933 161.788 156.111 185.98 156.111 215.723C156.111 231.956 148.889 247.177 136.329 257.475L137.794 259.29C150.913 248.538 158.414 232.689 158.414 215.758C158.414 184.689 133.189 159.449 102.207 159.449Z" fill="#B2AAFA"/>
<path d="M101.855 269.681C81.2257 269.681 62.255 257.422 53.5125 238.417L51.4392 239.401C60.5618 259.213 80.3619 272 101.89 272C105.656 272 109.423 271.613 113.086 270.841L112.636 268.557C109.077 269.33 105.483 269.681 101.855 269.681Z" fill="#B2AAFA"/>
<ellipse cx="323.872" cy="81.6556" rx="52.5929" ry="52.6556" fill="#E2DFFD"/>
<path d="M350.113 128.693L351.158 130.707C352.012 130.186 352.899 129.596 353.754 129.006L352.614 127.062C351.791 127.617 350.936 128.173 350.113 128.693Z" fill="#B2AAFA"/>
<path d="M323.717 25C292.996 25 267.67 50.0254 267.284 80.764L269.631 80.799C270.016 51.3223 294.257 27.3483 323.717 27.3483C353.562 27.3483 377.838 51.6377 377.838 81.5C377.838 97.7981 370.587 113.08 357.976 123.419L359.447 125.242C372.618 114.447 380.15 98.5341 380.15 81.535C380.15 50.3409 354.823 25 323.717 25Z" fill="#B2AAFA"/>
<path d="M323.364 135.675C302.652 135.675 283.605 123.366 274.827 104.285L272.745 105.273C281.905 125.165 301.784 138.003 323.399 138.003C327.18 138.003 330.962 137.615 334.639 136.839L334.188 134.546C330.615 135.322 327.007 135.675 323.364 135.675Z" fill="#B2AAFA"/>
<path d="M353.923 115.98H297.541C295.119 115.98 293.156 114.014 293.156 111.589V105.482L358.308 93.6289V111.589C358.308 114.014 356.345 115.98 353.923 115.98Z" fill="#EAEAEA"/>
<path d="M341.994 111.59H297.548C295.122 111.59 293.156 109.621 293.156 107.193V52.6631C293.156 50.2345 295.122 48.2656 297.548 48.2656H353.916C356.342 48.2656 358.308 50.2345 358.308 52.6631V95.2566C358.308 96.423 355.653 97.5414 354.829 98.3662L345.1 108.107C344.276 108.932 343.159 111.59 341.994 111.59Z" fill="white"/>
<path d="M341.974 111.593C343.139 111.593 344.256 111.13 345.08 110.305L357.022 98.3486C357.846 97.5238 358.308 96.4054 358.308 95.239V93.4575C358.308 95.4474 356.697 97.0605 354.71 97.0605H347.392C345.404 97.0605 343.793 98.6736 343.793 100.664V107.99C343.793 109.98 342.182 111.593 340.195 111.593H341.974V111.593Z" fill="#F2F2F2"/>
<path d="M358.308 52.6558V63.9502H293.156V52.6558C293.156 50.2324 295.119 48.2656 297.541 48.2656H353.923C356.345 48.2656 358.308 50.2324 358.308 52.6558Z" fill="#AAA0FA"/>
<path d="M305.568 55.9398C304.732 55.9398 304.022 55.9394 303.417 55.9394C301.578 55.9394 300.083 54.4423 300.083 52.6029V48.2771H302.275V52.6029C302.275 53.2321 302.787 53.7443 303.417 53.7443C304.022 53.7443 306.173 55.9398 305.568 55.9398Z" fill="#384180" fill-opacity="0.5"/>
<path d="M345.392 55.9398C345.392 55.9398 343.846 55.9394 343.24 55.9394C341.402 55.9394 339.907 54.4423 339.907 52.6029V48.2771H342.099V52.6029C342.099 53.2321 342.611 53.7443 343.24 53.7443C343.846 53.7443 345.392 55.334 345.392 55.9398Z" fill="#384180" fill-opacity="0.5"/>
<path d="M307.213 48.2733V45.4977C307.213 44.8677 306.701 44.3552 306.072 44.3552H305.569C304.939 44.3552 304.428 44.8677 304.428 45.4977V52.598C304.428 53.228 304.939 53.7405 305.569 53.7405C306.174 53.7405 306.665 54.2319 306.665 54.838C306.665 55.4442 306.174 55.9356 305.569 55.9356C303.731 55.9356 302.235 54.4384 302.235 52.598V45.4977C302.235 43.6573 303.731 42.1602 305.569 42.1602H306.072C307.91 42.1602 309.405 43.6573 309.405 45.4977V48.2733H307.213Z" fill="#2E0E93"/>
<path d="M347.037 48.2734V45.4978C347.037 44.8678 346.525 44.3554 345.895 44.3554H345.392C344.763 44.3554 344.251 44.8678 344.251 45.4978V52.5982C344.251 53.2281 344.763 53.7406 345.392 53.7406C345.998 53.7406 346.488 54.232 346.488 54.8382C346.488 55.4443 345.998 55.9357 345.392 55.9357C343.554 55.9357 342.059 54.4385 342.059 52.5982V45.4978C342.059 43.6575 343.554 42.1603 345.392 42.1603H345.895C347.734 42.1603 349.229 43.6575 349.229 45.4978V48.2734H347.037Z" fill="#2E0E93"/>
<path d="M305.997 77.8401H300.777C300.201 77.8401 299.733 77.3721 299.733 76.7948V71.5685C299.733 70.9912 300.201 70.5232 300.777 70.5232H305.997C306.574 70.5232 307.041 70.9912 307.041 71.5685V76.7948C307.041 77.3721 306.574 77.8401 305.997 77.8401Z" fill="#E6E9ED"/>
<path d="M320.894 77.8401H315.674C315.097 77.8401 314.63 77.3721 314.63 76.7948V71.5685C314.63 70.9912 315.097 70.5232 315.674 70.5232H320.894C321.47 70.5232 321.938 70.9912 321.938 71.5685V76.7948C321.938 77.3721 321.47 77.8401 320.894 77.8401Z" fill="#E6E9ED"/>
<path d="M335.79 77.8401H330.57C329.994 77.8401 329.526 77.3721 329.526 76.7948V71.5685C329.526 70.9912 329.994 70.5232 330.57 70.5232H335.79C336.367 70.5232 336.834 70.9912 336.834 71.5685V76.7948C336.834 77.3721 336.367 77.8401 335.79 77.8401Z" fill="#E6E9ED"/>
<path d="M350.687 77.8401H345.467C344.89 77.8401 344.423 77.3721 344.423 76.7948V71.5685C344.423 70.9912 344.89 70.5232 345.467 70.5232H350.687C351.263 70.5232 351.731 70.9912 351.731 71.5685V76.7948C351.731 77.3721 351.263 77.8401 350.687 77.8401Z" fill="#E6E9ED"/>
<path d="M305.997 91.4192H300.777C300.201 91.4192 299.733 90.9512 299.733 90.3739V85.1476C299.733 84.5703 300.201 84.1023 300.777 84.1023H305.997C306.574 84.1023 307.041 84.5703 307.041 85.1476V90.3739C307.041 90.9512 306.574 91.4192 305.997 91.4192Z" fill="#E6E9ED"/>
<path d="M320.894 91.4192H315.674C315.097 91.4192 314.63 90.9512 314.63 90.3739V85.1476C314.63 84.5703 315.097 84.1023 315.674 84.1023H320.894C321.47 84.1023 321.938 84.5703 321.938 85.1476V90.3739C321.938 90.9512 321.47 91.4192 320.894 91.4192Z" fill="#E6E9ED"/>
<path d="M331.587 92.5618C331.143 92.5618 330.713 92.3849 330.398 92.0689L328.309 89.9775C327.881 89.5488 327.881 88.8539 328.309 88.4254C328.737 87.9968 329.431 87.9968 329.859 88.4254L331.548 90.1165L335.986 84.6835C336.369 84.2144 337.059 84.145 337.528 84.5286C337.997 84.9123 338.066 85.6037 337.683 86.073L332.888 91.9444C332.588 92.3119 332.144 92.5362 331.671 92.5599C331.643 92.5611 331.615 92.5618 331.587 92.5618Z" fill="#22AA00"/>
<path d="M350.687 91.7505H345.467C344.89 91.7505 344.423 91.2825 344.423 90.7052V85.4789C344.423 84.9016 344.89 84.4336 345.467 84.4336H350.687C351.263 84.4336 351.731 84.9016 351.731 85.4789V90.7052C351.731 91.2825 351.263 91.7505 350.687 91.7505Z" fill="#E6E9ED"/>
<path d="M320.894 104.997H315.674C315.097 104.997 314.63 104.529 314.63 103.951V98.725C314.63 98.1477 315.097 97.6797 315.674 97.6797H320.894C321.47 97.6797 321.938 98.1477 321.938 98.725V103.951C321.938 104.529 321.47 104.997 320.894 104.997Z" fill="#E6E9ED"/>
<path d="M335.79 104.997H330.57C329.994 104.997 329.526 104.529 329.526 103.951V98.725C329.526 98.1477 329.994 97.6797 330.57 97.6797H335.79C336.367 97.6797 336.834 98.1477 336.834 98.725V103.951C336.834 104.529 336.367 104.997 335.79 104.997Z" fill="#E6E9ED"/>
<path d="M304.937 101.342L307.816 98.4595C308.245 98.0308 308.245 97.3359 307.816 96.9074C307.388 96.4788 306.694 96.4788 306.266 96.9074L303.387 99.7898L300.508 96.9074C300.08 96.4788 299.386 96.4788 298.958 96.9074C298.53 97.336 298.53 98.031 298.958 98.4595L301.837 101.342L298.958 104.224C298.53 104.653 298.53 105.348 298.958 105.776C299.172 105.991 299.453 106.098 299.733 106.098C300.014 106.098 300.294 105.991 300.508 105.776L303.387 102.894L306.266 105.776C306.48 105.991 306.761 106.098 307.041 106.098C307.322 106.098 307.602 105.991 307.816 105.776C308.245 105.348 308.245 104.653 307.816 104.224L304.937 101.342Z" fill="#F10A32"/>
<path d="M351.502 215.011C351.278 209.878 348.469 205.21 344.044 202.618C345.286 191.656 341.728 180.691 334.289 172.559C326.85 164.425 316.262 159.922 305.258 160.213C303.458 158.583 301.023 157.846 298.623 158.206C297.632 158.355 296.678 158.691 295.812 159.196C295.549 158.684 295.134 158.263 294.627 157.991C293.702 157.57 292.895 157.991 291.906 157.85C288.881 155.497 288.271 152.959 282.016 152.175C271.945 150.911 267.485 156.933 266.356 156.083C266.05 155.713 265.711 155.374 265.342 155.067C264.173 154.062 262.745 153.41 261.222 153.182C257.925 152.695 252.156 155.761 249.213 159.205C248.029 158.135 246.556 157.443 244.978 157.215C242.577 156.862 240.145 157.601 238.343 159.229C227.348 158.952 216.773 163.46 209.345 171.589C201.917 179.718 198.366 190.674 199.606 201.628C195.182 204.221 192.373 208.887 192.147 214.018C192.022 217.609 192.913 221.161 194.718 224.263C197.759 230.187 200.075 232.318 200.299 237.3C200.686 246.057 207.485 252.17 207.485 252.17C211.894 256.507 218.62 259.184 225.18 258.052C225.477 261.356 226.878 263.835 229.013 264.322C230.949 264.751 233.044 263.414 234.641 261.017C236.557 267.707 241.3 273.219 247.623 276.094C247.877 276.649 248.15 276.92 248.447 276.92C248.743 276.92 249 276.814 249.272 276.755C250.47 277.165 251.704 277.466 252.955 277.655C259.66 278.566 266.414 276.358 271.294 271.659C276.346 276.92 283.392 279.746 290.686 278.673C299.513 277.374 306.345 270.716 308.983 262.066C310.59 264.454 312.676 265.793 314.621 265.372C316.756 264.901 318.157 262.405 318.452 259.101C325.047 260.233 331.74 257.565 336.147 253.227C336.147 253.227 342.948 247.114 343.335 238.356C343.559 233.401 345.873 231.236 348.907 225.312C350.731 222.196 351.632 218.622 351.503 215.011H351.502Z" fill="#22333B"/>
<path d="M433.37 402H117.638C114.461 402 112.82 398.237 114.981 395.94L144.04 364.985C144.793 364.235 145.728 363.833 146.688 363.848H404.313C405.272 363.829 406.207 364.233 406.961 364.985L436.018 395.93C438.18 398.237 436.538 401.998 433.37 401.998V402Z" fill="#22333B"/>
<path d="M383.729 346.53L391.146 341.813L384.759 320.161C359.094 299.103 348.041 283.678 302.398 274.607C290.315 272.203 278.414 273.475 267.782 275.384C255.33 273.979 241.169 274.955 226.655 278.689C189.642 288.305 163.317 312.66 164.431 334.965V348.596C164.431 360.798 174.297 370.687 186.468 370.687L283.475 365.284H355.334C364.401 365.284 372.849 363.292 372.849 354.189L377.059 350.257C377.044 350.075 383.729 346.713 383.729 346.53Z" fill="#FC4A61"/>
<path d="M281.992 341.17C298.928 336.733 323.901 334.114 340.666 334.907C340.666 334.907 352.888 326.902 358.507 316.476C362.052 309.908 363.536 304.439 363.454 302.035C369.141 305.166 374.439 310.214 378.965 314.361C394.014 328.182 396.676 337.782 397.756 343.787C398.299 346.845 398.498 349.955 398.35 353.057C398.034 356.631 396.665 360.029 394.418 362.822C387.965 370.538 378.388 371.456 372.166 371.654C365.943 371.852 346.475 370.101 338.175 369.249C329.877 368.398 311.473 366.077 301.705 366.878C291.94 367.68 284.258 368.176 279.454 368.225C274.647 368.275 274.509 366.969 273.923 364.094C273.338 361.219 273.14 355.13 273.923 353.965C275.218 352.267 277.121 351.141 279.231 350.826C279.231 350.826 267.6 351.529 262.987 353.189C262.987 353.189 259.928 354.354 259.689 352.579C259.45 350.802 265.055 345.598 281.992 341.17Z" fill="#F8B488"/>
<path d="M398.158 346.993C393.445 347.101 387.444 349.298 381.839 353.379C374.093 358.997 369.477 366.416 369.947 371.661H372.097C378.353 371.463 387.931 370.545 394.351 362.83C396.598 360.037 397.967 356.639 398.282 353.065C398.386 351.042 398.345 349.011 398.159 346.993H398.158Z" fill="#F3816D"/>
<path d="M338.11 369.249C339.02 369.162 339.939 369.18 340.846 369.299L348.264 369.802L359.275 370.571C361.352 370.711 363.528 370.835 365.778 370.943C368.028 371.049 370.368 371.157 372.725 371.058C377.178 371.025 381.587 370.184 385.74 368.581C389.084 367.188 392.044 365.01 394.37 362.228C395.903 360.31 397.026 358.098 397.665 355.725C398.128 354.073 398.259 353.073 398.35 353.082C398.42 354.007 398.335 354.936 398.093 355.833C397.608 358.332 396.563 360.688 395.036 362.722C392.704 365.699 389.662 368.044 386.192 369.538C381.943 371.271 377.405 372.181 372.815 372.223C370.344 372.322 368.028 372.223 365.762 372.082C363.496 371.943 361.319 371.809 359.242 371.645C355.121 371.315 351.363 370.959 348.238 370.628C345.115 370.298 342.586 370.002 340.821 369.762C339.903 369.688 338.994 369.516 338.11 369.249ZM355.418 337.443C355.418 337.542 353.721 337.097 350.638 336.559C346.277 335.848 341.869 335.449 337.451 335.37C331.863 335.238 325.188 335.518 317.794 335.998C309.772 336.523 301.789 337.545 293.892 339.054C285.52 340.706 277.574 342.622 270.733 345.365C267.481 346.555 264.425 348.225 261.667 350.323C261.082 350.784 260.58 351.342 260.183 351.974C260.043 352.199 260.007 352.474 260.085 352.727C260.204 352.938 260.428 353.073 260.67 353.082C261.351 353.133 262.033 353.037 262.673 352.8L263.744 352.471L264.799 352.231C267.585 351.669 270.115 351.405 272.339 351.166C274.565 350.927 276.46 350.802 278.043 350.702C279.625 350.603 280.837 350.546 281.662 350.522C282.08 350.468 282.504 350.468 282.923 350.522C282.517 350.634 282.099 350.7 281.678 350.718L278.084 351.108C276.527 351.273 274.615 351.487 272.406 351.768C270.197 352.049 267.684 352.379 264.989 352.982L263.974 353.231L262.969 353.56C262.202 353.86 261.376 353.982 260.555 353.916C260.02 353.878 259.543 353.565 259.293 353.091C259.172 352.833 259.129 352.546 259.171 352.264V352.049L259.236 351.884L259.368 351.537C259.801 350.787 260.358 350.116 261.016 349.554C263.835 347.353 266.969 345.593 270.313 344.332C273.956 342.896 277.69 341.699 281.488 340.748C285.403 339.699 289.491 338.765 293.712 337.956C301.643 336.436 309.666 335.437 317.729 334.965C325.146 334.535 331.847 334.336 337.508 334.575C341.957 334.727 346.389 335.247 350.753 336.13C352.286 336.476 353.473 336.774 354.264 337.029C354.663 337.122 355.051 337.262 355.418 337.443Z" fill="#091422"/>
<path d="M263.992 341.17C247.055 336.733 222.082 334.114 205.317 334.907C205.317 334.907 193.095 326.902 187.476 316.476C183.93 309.908 182.447 304.439 182.529 302.035C176.842 305.166 171.542 310.214 167.017 314.361C151.96 328.182 149.298 337.782 148.227 343.787C147.684 346.845 147.485 349.955 147.633 353.057C147.961 356.635 149.344 360.035 151.606 362.822C158.051 370.538 167.636 371.456 173.859 371.654C180.081 371.852 199.548 370.101 207.855 369.249C216.164 368.398 234.56 366.077 244.327 366.878C254.093 367.68 261.774 368.176 266.579 368.225C271.383 368.275 271.524 366.969 272.109 364.094C272.694 361.219 272.893 355.13 272.109 353.965C270.821 352.265 268.919 351.138 266.809 350.826C266.809 350.826 278.439 351.529 283.054 353.189C283.054 353.189 286.112 354.354 286.351 352.579C286.59 350.802 280.928 345.598 263.992 341.17Z" fill="#F8B488"/>
<path d="M147.823 346.993C152.537 347.101 158.537 349.298 164.142 353.379C171.888 358.997 176.504 366.416 176.034 371.661H173.875C167.627 371.463 158.041 370.545 151.621 362.83C149.374 360.037 148.007 356.639 147.69 353.065C147.586 351.042 147.631 349.011 147.822 346.993H147.823Z" fill="#F3816D"/>
<path d="M207.824 369.25C206.945 369.507 206.042 369.671 205.128 369.737C203.39 369.977 200.858 370.282 197.711 370.605C194.562 370.927 190.853 371.29 186.707 371.621C184.632 371.786 182.458 371.931 180.189 372.059C177.922 372.174 175.574 372.299 173.142 372.2C168.552 372.158 164.01 371.248 159.758 369.513C156.287 368.019 153.247 365.676 150.913 362.699C149.388 360.663 148.341 358.307 147.856 355.808C147.617 354.913 147.529 353.982 147.602 353.057C147.692 353.057 147.823 354.017 148.284 355.701C148.925 358.073 150.046 360.287 151.581 362.203C153.904 364.983 156.862 367.164 160.203 368.556C164.357 370.159 168.765 371 173.216 371.033C175.581 371.134 177.915 371.033 180.165 370.918C182.415 370.803 184.59 370.687 186.667 370.546L197.678 369.779L205.095 369.275C206.001 369.164 206.917 369.155 207.824 369.25ZM190.558 337.443C190.938 337.259 191.34 337.118 191.752 337.022C192.576 336.767 193.73 336.468 195.264 336.123C199.617 335.24 204.035 334.72 208.475 334.568C214.104 334.328 220.838 334.568 228.255 334.958C236.317 335.426 244.339 336.421 252.272 337.94C256.482 338.764 260.579 339.683 264.495 340.732C268.275 341.711 271.99 342.934 275.612 344.39C278.956 345.651 282.092 347.412 284.909 349.612C285.567 350.173 286.126 350.845 286.557 351.596L286.69 351.942L286.747 352.107V352.323C286.789 352.603 286.745 352.892 286.623 353.147C286.372 353.621 285.896 353.933 285.363 353.975C284.542 354.041 283.716 353.919 282.947 353.619L281.942 353.29L280.92 353.041C278.217 352.438 275.694 352.116 273.502 351.826C271.311 351.537 269.382 351.332 267.832 351.167L264.238 350.777C263.816 350.758 263.395 350.692 262.986 350.579C263.408 350.528 263.834 350.528 264.255 350.579C265.08 350.579 266.3 350.654 267.865 350.761C269.432 350.869 271.351 351.001 273.577 351.224C275.802 351.446 278.332 351.728 281.117 352.288L282.172 352.528L283.244 352.858C283.885 353.096 284.567 353.192 285.248 353.14C285.491 353.132 285.711 352.997 285.832 352.784C285.911 352.531 285.874 352.257 285.733 352.033C285.338 351.401 284.836 350.842 284.251 350.381C281.492 348.283 278.435 346.613 275.183 345.424C268.344 342.681 260.349 340.765 252.024 339.113C244.127 337.602 236.145 336.581 228.123 336.055C220.706 335.576 214.055 335.295 208.466 335.427C204.047 335.508 199.643 335.907 195.28 336.617C192.264 337.097 190.59 337.542 190.558 337.443Z" fill="#091422"/>
<path d="M327.156 388.663H214.401L206.002 319.938C205.722 319.137 205.837 318.25 206.311 317.547C206.785 316.844 207.563 316.407 208.408 316.368H333.131C333.975 316.409 334.751 316.848 335.223 317.55C335.695 318.254 335.808 319.139 335.529 319.938L327.156 388.663Z" fill="#A8CBE2"/>
<path d="M206.455 375.396V377.486C206.463 377.718 206.586 377.932 206.785 378.055L214.202 388.481C214.361 388.587 214.547 388.643 214.738 388.638H326.827C327.016 388.641 327.203 388.586 327.363 388.481L334.78 378.055C334.979 377.932 335.103 377.718 335.109 377.486V375.395C335.055 374.961 334.671 374.647 334.237 374.675H207.321C206.888 374.651 206.51 374.964 206.455 375.395V375.396Z" fill="#A8CBE2"/>
<path d="M270.758 390.138C301.883 390.138 327.115 389.467 327.115 388.639C327.115 387.811 301.883 387.14 270.758 387.14C239.633 387.14 214.401 387.811 214.401 388.639C214.401 389.467 239.633 390.138 270.758 390.138Z" fill="#121D22"/>
<path d="M206.002 324.067C206.471 324.01 208.73 338.417 211.053 356.245C213.378 374.074 214.886 388.58 214.417 388.639C213.947 388.696 211.697 374.296 209.372 356.47C207.049 338.64 205.523 324.135 206.002 324.067ZM327.156 388.663C326.693 388.606 328.201 374.098 330.528 356.27C332.851 338.443 335.11 324.051 335.571 324.093C336.034 324.135 334.532 338.657 332.209 356.494C329.884 374.329 327.585 388.705 327.156 388.663Z" fill="#121D22"/>
<path d="M270.163 358.526C271.916 358.526 273.336 357.102 273.336 355.345C273.336 353.589 271.916 352.165 270.163 352.165C268.411 352.165 266.991 353.589 266.991 355.345C266.991 357.102 268.411 358.526 270.163 358.526Z" fill="#334A55"/>
<path d="M274.313 267.193C266.737 266.908 259.12 263.12 259.12 263.12C259.12 263.12 260.219 271.095 258.723 274.143L255.716 274.958C255.716 274.958 245.861 290.974 273.363 294.769H275.263C302.764 290.974 292.91 274.958 292.91 274.958L289.902 274.143C288.406 271.097 289.505 263.12 289.505 263.12C289.505 263.12 281.889 266.868 274.313 267.193Z" fill="#F8B488"/>
<path d="M289.5 263L259 264C260.2 270 257.667 279.833 257 282C257 282 269 279.5 278.5 272.5C288 265.5 289.5 263 289.5 263Z" fill="#CF9169"/>
<path d="M259.096 263.011C259.342 262.945 260.424 267.383 259.812 272.924C259.567 275.277 259.033 277.59 258.219 279.816C257.583 281.525 256.955 282.48 256.814 282.414C256.674 282.35 257.029 281.299 257.459 279.587C258.024 277.356 258.433 275.09 258.682 272.801C259.284 267.449 258.731 263.05 259.094 263.009L259.096 263.011ZM289.438 263.628C289.812 263.678 289.256 267.962 289.934 273.161C290.224 275.366 290.694 277.545 291.337 279.677C291.842 281.306 292.256 282.309 292.123 282.39C291.991 282.471 291.297 281.575 290.586 279.947C289.691 277.812 289.089 275.567 288.802 273.275C288.108 267.898 289.19 263.571 289.438 263.628Z" fill="#091422"/>
<path d="M310.411 237.043C315.11 232.654 316.865 226.879 314.331 224.144C311.797 221.409 305.934 222.75 301.235 227.138C296.536 231.527 294.781 237.302 297.315 240.037C299.849 242.772 305.713 241.431 310.411 237.043Z" fill="#F8B488"/>
<path d="M248.542 240.053C251.076 237.318 249.321 231.543 244.622 227.155C239.923 222.766 234.059 221.426 231.525 224.161C228.991 226.896 230.746 232.67 235.445 237.059C240.144 241.448 246.008 242.788 248.542 240.053Z" fill="#F8B488"/>
<path d="M307 223.065C307 248.138 291.999 268.466 273.499 268.466C254.998 268.466 240 248.138 240 223.065C240 197.992 254.998 183.125 273.499 183.125C292.001 183.125 306.999 197.984 306.999 223.065H307Z" fill="#F8B488"/>
<path d="M272.958 230.611C274.989 233.76 275.749 235.197 280.244 236.859C277.824 238.802 272.897 239.184 270.954 237.417C272.929 237.816 274.893 237.868 277.934 236.997C276.064 237.026 271.94 231.871 272.958 230.611Z" fill="#0B1320"/>
<path d="M293.771 241.288C298.672 240.078 302.042 236.636 301.299 233.602C300.555 230.567 295.979 229.088 291.078 230.298C286.177 231.509 282.807 234.95 283.55 237.985C284.294 241.02 288.87 242.499 293.771 241.288Z" fill="#F3816D"/>
<path d="M262.006 237.964C262.75 234.929 259.38 231.488 254.478 230.277C249.577 229.067 245.001 230.546 244.258 233.58C243.514 236.615 246.885 240.057 251.786 241.267C256.687 242.478 261.263 240.999 262.006 237.964Z" fill="#F3816D"/>
<path d="M284.949 248.779C284.345 247.19 262 246.66 262 248.779C262 250.898 266.227 260.434 273.475 260.434C280.722 260.434 285.553 250.368 284.949 248.779Z" fill="#5B3D41"/>
<path fill-rule="evenodd" clip-rule="evenodd" d="M256.862 222.363C257.096 222.19 257.326 222.037 257.543 221.915C258.682 221.276 260.075 221.165 261.374 221.372C262.882 221.615 264.436 222.309 265.626 223.235C266.175 223.662 266.695 224.441 266.923 225.082C267.209 225.885 266.676 226.586 265.706 226.177C264.23 225.548 263.493 223.817 261.8 223.408C260.152 223.01 258.567 223.752 257.248 224.658C256.932 224.875 256.587 225.057 256.289 225.297C255.303 226.084 254.754 224.992 255.108 224.102C255.4 223.367 256.27 222.8 256.862 222.363Z" fill="#5B3D41"/>
<path fill-rule="evenodd" clip-rule="evenodd" d="M256.064 216.446L256.072 216.443C256.08 216.44 256.094 216.435 256.113 216.429C256.151 216.417 256.21 216.398 256.288 216.375C256.444 216.33 256.675 216.266 256.966 216.201C257.549 216.069 258.365 215.929 259.29 215.893C261.155 215.822 263.365 216.179 265.084 217.763C265.409 218.062 265.915 218.041 266.214 217.714C266.513 217.387 266.491 216.879 266.165 216.579C264.01 214.594 261.308 214.209 259.229 214.288C258.183 214.328 257.268 214.486 256.615 214.634C256.287 214.708 256.023 214.779 255.839 214.834C255.746 214.861 255.674 214.884 255.623 214.9C255.597 214.908 255.577 214.915 255.563 214.92L255.545 214.926L255.54 214.928L255.538 214.928L255.537 214.929C255.537 214.929 255.537 214.929 255.8 215.687L255.537 214.929C255.119 215.075 254.899 215.533 255.045 215.952C255.19 216.37 255.646 216.592 256.063 216.446L256.063 216.446C256.063 216.446 256.063 216.446 256.064 216.446L256.064 216.446Z" fill="#1A1B16"/>
<path fill-rule="evenodd" clip-rule="evenodd" d="M290.138 222.363C289.904 222.19 289.674 222.037 289.457 221.915C288.318 221.276 286.925 221.165 285.626 221.372C284.118 221.615 282.564 222.309 281.374 223.235C280.825 223.662 280.305 224.441 280.077 225.082C279.791 225.885 280.324 226.586 281.294 226.177C282.77 225.548 283.507 223.817 285.2 223.408C286.848 223.01 288.433 223.752 289.752 224.658C290.068 224.875 290.413 225.057 290.711 225.297C291.697 226.084 292.246 224.992 291.892 224.102C291.6 223.367 290.73 222.8 290.138 222.363Z" fill="#5B3D41"/>
<path fill-rule="evenodd" clip-rule="evenodd" d="M280.138 217.185L280.148 217.181L280.189 217.163C280.227 217.146 280.286 217.122 280.364 217.09C280.52 217.027 280.751 216.938 281.047 216.836C281.638 216.631 282.48 216.379 283.475 216.187C285.479 215.802 288.028 215.679 290.395 216.622C290.806 216.785 291.271 216.584 291.434 216.171C291.597 215.759 291.396 215.292 290.985 215.129C288.221 214.028 285.329 214.195 283.174 214.61C282.09 214.818 281.173 215.093 280.526 215.317C280.202 215.428 279.945 215.528 279.766 215.6C279.676 215.636 279.607 215.666 279.558 215.687C279.534 215.697 279.515 215.706 279.501 215.712L279.485 215.719L279.48 215.721L279.478 215.722C279.478 215.722 279.477 215.722 279.808 216.454L279.477 215.722C279.075 215.906 278.897 216.382 279.079 216.786C279.262 217.19 279.736 217.368 280.138 217.185Z" fill="#1A1B16"/>
<path d="M203.959 180.479C204.114 180.553 203.339 182.436 202.186 185.435C201.51 187.205 200.941 189.015 200.48 190.854C199.606 194.237 199.518 197.775 200.224 201.197C200.487 202.312 200.777 203.395 201.049 204.435C201.617 206.283 202.083 208.162 202.442 210.062C203.027 213.366 202.54 215.439 202.442 215.406C202.343 215.373 202.442 213.366 201.683 210.22C201.32 208.641 200.735 206.807 200.075 204.741C199.738 203.708 199.417 202.609 199.129 201.437C198.855 200.217 198.69 198.976 198.633 197.727C198.522 195.323 198.802 192.915 199.457 190.598C199.971 188.728 200.632 186.903 201.435 185.137C202.804 182.196 203.835 180.478 203.959 180.478V180.479ZM316.038 209.856C316.178 209.856 316.253 210.896 316.038 212.557C315.739 214.745 314.99 216.845 313.837 218.728C312.665 220.617 311.038 222.177 309.107 223.27C307.614 224.098 306.544 224.215 306.51 224.098C306.478 223.982 307.392 223.552 308.679 222.618C310.351 221.414 311.778 219.9 312.882 218.157C313.943 216.373 314.744 214.445 315.256 212.432C315.659 210.839 315.865 209.839 316.038 209.854V209.856ZM230.34 210.467C230.521 210.467 230.728 211.449 231.164 213.002C231.672 215.018 232.471 216.946 233.538 218.728C234.639 220.473 236.061 221.99 237.734 223.197C239.027 224.131 239.949 224.519 239.909 224.676C239.867 224.832 238.797 224.676 237.311 223.85C235.378 222.761 233.749 221.197 232.581 219.305C231.43 217.427 230.681 215.328 230.38 213.144C230.134 211.507 230.207 210.476 230.34 210.467Z" fill="#091422"/>
<path d="M239.794 225.279C248.859 225.279 249.889 194.713 271.837 194.713C293.077 194.713 297.09 225.279 306.452 225.279C306.535 213.713 309.642 178.438 275.257 178.314C240.873 178.189 238.565 215.3 239.792 225.279H239.794Z" fill="#22333B"/>
<path d="M238.293 224.362C238.817 224.61 239.313 224.918 239.768 225.279C244.465 184.287 273.04 186.311 273.098 186.302C273.155 186.294 301.721 184.287 306.427 225.279C306.884 224.919 307.378 224.61 307.904 224.362C310.639 204.849 298.623 175.314 273.033 175.314C244.104 175.314 235.549 204.849 238.293 224.362Z" fill="#FDADB3"/>
<path d="M343.541 236.415C343.443 235.846 343.471 235.261 343.623 234.706C343.918 233.162 344.474 231.68 345.272 230.326C346.22 228.592 347.638 226.742 348.75 224.545C349.907 222.086 350.614 219.437 350.835 216.729C351.081 214.045 350.588 211.344 349.409 208.922L348.964 208.096C348.807 207.839 348.626 207.609 348.453 207.369C348.123 206.904 347.762 206.463 347.374 206.047C346.696 205.278 345.936 204.585 345.107 203.981C343.94 203.067 342.541 202.494 341.069 202.329C340.022 202.239 339.421 202.428 339.421 202.329C339.421 202.23 339.948 201.908 341.069 201.858C342.671 201.858 344.234 202.355 345.543 203.279C346.442 203.879 347.272 204.578 348.017 205.362C348.444 205.792 348.843 206.251 349.212 206.733C349.401 206.988 349.607 207.237 349.779 207.51L350.284 208.334C351.621 210.915 352.193 213.825 351.932 216.721C351.704 219.577 350.929 222.362 349.648 224.924C348.413 227.27 346.92 229.055 345.923 230.707C343.888 233.961 343.764 236.465 343.541 236.415ZM230.275 264.405C230.275 264.48 230.134 264.555 229.846 264.612C229.669 264.646 229.489 264.664 229.309 264.661C229.095 264.661 228.856 264.595 228.585 264.537C227.48 264.247 226.409 263.026 225.815 261.588C225.318 260.374 225.039 259.082 224.991 257.77C224.991 256.781 225.081 256.168 225.239 256.16C225.396 256.151 225.552 256.739 225.782 257.664C226.047 258.851 226.402 260.017 226.845 261.15C227.214 262.233 227.929 263.162 228.882 263.793L229.409 264.041C229.566 264.108 229.722 264.116 229.846 264.165C230.109 264.247 230.266 264.322 230.275 264.405Z" fill="#091422"/>
<path d="M240.037 236.26C240.037 236.384 238.825 236.481 237.11 235.535C236.112 234.963 235.235 234.162 234.536 233.184C233.641 231.965 233.107 230.469 233.009 228.902C232.95 228.007 233.181 227.12 233.662 226.4C234.168 225.739 234.91 225.356 235.693 225.351C236.88 225.252 238.053 225.697 238.935 226.584C239.491 227.196 239.848 227.996 239.95 228.857C240.022 229.442 239.95 229.774 239.888 229.774C239.825 229.774 239.731 229.477 239.55 228.979C239.312 228.302 238.924 227.701 238.423 227.231C237.648 226.609 236.688 226.341 235.74 226.479C235.255 226.49 234.798 226.736 234.488 227.152C234.182 227.669 234.04 228.284 234.087 228.9C234.184 230.224 234.615 231.49 235.33 232.555C235.918 233.459 236.649 234.234 237.488 234.845C238.951 235.841 240.077 236.06 240.037 236.262V236.26ZM305.955 236.26C305.915 236.06 307.049 235.841 308.513 234.801C309.349 234.19 310.078 233.413 310.662 232.51C311.384 231.449 311.817 230.182 311.913 228.857C311.961 228.238 311.817 227.621 311.504 227.109C311.2 226.69 310.744 226.444 310.26 226.435C309.312 226.297 308.352 226.567 307.576 227.187C307.076 227.656 306.688 228.257 306.45 228.935C306.269 229.434 306.19 229.739 306.112 229.731C306.034 229.722 305.969 229.398 306.041 228.813C306.152 227.953 306.511 227.155 307.065 226.54C307.947 225.651 309.119 225.207 310.307 225.307C311.09 225.312 311.832 225.694 312.338 226.357C312.815 227.079 313.046 227.964 312.992 228.857C312.892 230.426 312.359 231.922 311.465 233.14C310.766 234.117 309.888 234.918 308.891 235.492C307.174 236.481 305.962 236.384 305.954 236.262L305.955 236.26Z" fill="#091422"/>
<path d="M207.831 401.318C207.891 401.318 207.938 401.27 207.938 401.212C207.938 401.152 207.891 401.104 207.831 401.104C207.771 401.104 207.723 401.152 207.723 401.212C207.723 401.272 207.771 401.318 207.831 401.318Z" fill="#535470"/>
<defs>
<filter id="filter0_d_4339_173716" x="171.112" y="65.5696" width="46.3335" height="46.5854" filterUnits="userSpaceOnUse" color-interpolation-filters="sRGB">
<feFlood flood-opacity="0" result="BackgroundImageFix"/>
<feColorMatrix in="SourceAlpha" type="matrix" values="0 0 0 0 0 0 0 0 0 0 0 0 0 0 0 0 0 0 127 0" result="hardAlpha"/>
<feOffset dx="2" dy="2"/>
<feComposite in2="hardAlpha" operator="out"/>
<feColorMatrix type="matrix" values="0 0 0 0 0 0 0 0 0 0 0 0 0 0 0 0 0 0 0.1 0"/>
<feBlend mode="normal" in2="BackgroundImageFix" result="effect1_dropShadow_4339_173716"/>
<feBlend mode="normal" in="SourceGraphic" in2="effect1_dropShadow_4339_173716" result="shape"/>
</filter>
<filter id="filter1_d_4339_173716" x="150.83" y="66.7845" width="28.5034" height="29.537" filterUnits="userSpaceOnUse" color-interpolation-filters="sRGB">
<feFlood flood-opacity="0" result="BackgroundImageFix"/>
<feColorMatrix in="SourceAlpha" type="matrix" values="0 0 0 0 0 0 0 0 0 0 0 0 0 0 0 0 0 0 127 0" result="hardAlpha"/>
<feOffset dx="1" dy="2"/>
<feComposite in2="hardAlpha" operator="out"/>
<feColorMatrix type="matrix" values="0 0 0 0 0 0 0 0 0 0 0 0 0 0 0 0 0 0 0.15 0"/>
<feBlend mode="normal" in2="BackgroundImageFix" result="effect1_dropShadow_4339_173716"/>
<feBlend mode="normal" in="SourceGraphic" in2="effect1_dropShadow_4339_173716" result="shape"/>
</filter>
</defs>
</svg>
